<?xml version="1.0" encoding="UTF-8"?>
<!DOCTYPE svg PUBLIC "-//W3C//DTD SVG 1.1//EN" "http://www.w3.org/Graphics/SVG/1.1/DTD/svg11.dtd">
<svg xmlns="http://www.w3.org/2000/svg" version="1.1" width="64px" height="64px" style="shape-rendering:geometricPrecision; text-rendering:geometricPrecision; image-rendering:optimizeQuality; fill-rule:evenodd; clip-rule:evenodd" xmlns:xlink="http://www.w3.org/1999/xlink">
<g><path style="opacity:0.871" fill="#000000" d="M 23.5,12.5 C 24.9649,13.4057 25.9649,14.739 26.5,16.5C 21.5412,19.9576 17.8746,24.4576 15.5,30C 23.366,29.417 28.0327,32.917 29.5,40.5C 28.4082,46.4264 24.9082,49.7597 19,50.5C 13.5243,49.6893 9.85765,46.6893 8,41.5C 6.04559,27.9705 11.2123,18.3038 23.5,12.5 Z"/></g>
<g><path style="opacity:0.865" fill="#000000" d="M 49.5,12.5 C 51.1454,13.4787 52.4787,14.812 53.5,16.5C 48.7661,19.9029 45.0995,24.2362 42.5,29.5C 53.774,30.2588 57.6074,35.9254 54,46.5C 47.4062,51.8689 41.4062,51.2023 36,44.5C 32.7178,36.8778 33.3844,29.5444 38,22.5C 41.4351,18.5549 45.2685,15.2216 49.5,12.5 Z"/></g>
</svg>
